<svg width="24" height="24" viewBox="0 0 24 24" fill="none" xmlns="http://www.w3.org/2000/svg">
  <path fill="currentColor" fill-rule="evenodd" d="M13.153 0.224h-.271v10.902h10.895v-.334C18.597 9.46 14.515 5.394 13.153 0.224" clip-rule="evenodd"></path>
  <path fill="currentColor" fill-rule="evenodd" d="M13.106 10.902h10.332C18.45 9.506 14.598 5.721 13.106 0.871zm10.671 0.447H12.881a.224.224 0 0 1-.224-.224V0.224c0-.124.1-.224.224-.224h.271a.224.224 0 0 1 .216.167c1.345 5.106 5.354 9.095 10.464 10.408a.224.224 0 0 1 .168.217v.334c0 .123-.1.224-.224.224M23.778 13.146v-.272H12.882v10.902h.334c1.331-5.183 5.394-9.268 10.562-10.631" clip-rule="evenodd"></path>
  <path fill="currentColor" fill-rule="evenodd" d="M13.106 13.098v10.232a15.04 15.04 0 0 1 10.025-10.232zM13.216 24h-.334a.224.224 0 0 1-.224-.224V12.874c0-.123.1-.223.224-.223h10.895c.123 0 .224.1.224.223v.272a.224.224 0 0 1-.166.216A14.592 14.592 0 0 0 13.432 23.832a.224.224 0 0 1-.216.168M10.848 23.776h.272V12.874H0.224v.334c5.18 1.332 9.262 5.397 10.624 10.568" clip-rule="evenodd"></path>
  <path fill="currentColor" fill-rule="evenodd" d="M0.666 13.098c4.883 1.397 8.734 5.181 10.226 10.031V13.098zM11.118 24h-.271a.224.224 0 0 1-.216-.167C9.286 18.727 5.277 14.739 0.168 13.425A.224.224 0 0 1 0 13.208v-.334c0-.123.1-.224.224-.224h10.895c.123 0 .223.1.223.224v23.776c0 .124-.1.224-.223.224M0.224 10.854v.271h11.12V0.224h-.334C9.454 5.407 5.392 9.492 0.224 10.854" clip-rule="evenodd"></path>
  <path fill="currentColor" fill-rule="evenodd" d="M0.872 10.902h10.025V0.67A15.04 15.04 0 0 1 0.872 10.902m10.247 0.448H0.224a.224.224 0 0 1-.224-.224v-.271c0-.102.068-.191.166-.216A14.592 14.592 0 0 0 10.569 0.168a.224.224 0 0 1 .216-.168h.334c.123 0 .223.1.223.224v10.902c0 .123-.1.224-.223.224" clip-rule="evenodd"></path>
</svg>
